<svg xmlns="http://www.w3.org/2000/svg" width="128" height="128" viewBox="0 0 128 128" version="1.1"><path d="M 44.087 11.913 C 42.766 13.234, 42 15.285, 42 17.500 L 42 21 25.155 21 C 10.106 21, 8.134 21.195, 6.655 22.829 C 5.745 23.835, 5 25.565, 5 26.674 C 5 27.783, 5.823 29.435, 6.829 30.345 C 8.438 31.801, 11.984 32, 36.329 32 C 55.651 32, 64 32.329, 64 33.091 C 64 33.691, 61.974 38.079, 59.499 42.841 C 57.023 47.604, 53.479 53.289, 51.622 55.474 C 48.672 58.948, 48.040 59.278, 46.613 58.094 C 45.714 57.348, 42.941 53.672, 40.449 49.924 C 37.958 46.176, 35.005 42.819, 33.888 42.464 C 32.611 42.059, 31.141 42.468, 29.928 43.565 C 28.868 44.525, 28 46.277, 28 47.459 C 28 48.641, 29.407 51.834, 31.126 54.554 C 32.845 57.274, 35.613 61.225, 37.277 63.334 L 40.302 67.169 28.151 79.349 C 19.014 88.508, 16 92.158, 16 94.064 C 16 95.459, 16.540 97.140, 17.200 97.800 C 17.860 98.460, 19.766 99, 21.435 99 C 23.974 99, 26.388 97.087, 36.193 87.308 L 47.916 75.615 53.884 81.308 C 57.886 85.125, 60.676 87, 62.354 87 C 63.731 87, 65.564 86.293, 66.429 85.429 C 67.293 84.564, 68 82.889, 68 81.705 C 68 80.412, 65.579 77.111, 61.932 73.432 L 55.865 67.310 61.445 59.532 C 64.514 55.254, 68.570 48.500, 70.457 44.523 C 72.345 40.545, 74.188 36.101, 74.553 34.646 C 75.183 32.134, 75.537 32, 81.537 32 C 85.949 32, 88.332 31.526, 89.429 30.429 C 90.293 29.564, 91 27.834, 91 26.584 C 91 25.333, 90.177 23.565, 89.171 22.655 C 87.625 21.255, 84.790 21, 70.803 21 L 54.263 21 53.711 16.879 C 53.407 14.612, 52.785 12.394, 52.329 11.950 C 51.873 11.505, 50.301 10.846, 48.837 10.484 C 46.869 9.998, 45.628 10.372, 44.087 11.913 M 88.355 54.884 C 87.215 55.946, 81.901 68.596, 76.167 83.898 C 70.575 98.819, 66 111.911, 66 112.991 C 66 114.071, 67.143 115.703, 68.541 116.619 C 70.497 117.900, 71.608 118.044, 73.366 117.243 C 74.929 116.531, 76.440 114.043, 78.157 109.351 L 80.665 102.500 93.234 102.221 L 105.803 101.942 108.517 109.045 C 110.346 113.831, 111.968 116.484, 113.489 117.177 C 115.065 117.895, 116.369 117.873, 117.806 117.104 C 118.938 116.498, 120.151 115.101, 120.500 113.999 C 120.912 112.702, 117.553 102.385, 110.978 84.748 C 103.869 65.679, 100.080 56.825, 98.354 55.250 C 96.998 54.013, 94.648 53, 93.133 53 C 91.617 53, 89.467 53.848, 88.355 54.884 M 89.644 78.592 C 87.640 83.892, 86 88.628, 86 89.115 C 86 89.602, 89.423 90, 93.607 90 C 99.274 90, 101.095 89.681, 100.749 88.750 C 100.494 88.063, 98.812 83.450, 97.012 78.500 C 95.212 73.550, 93.637 69.377, 93.513 69.227 C 93.389 69.077, 91.648 73.291, 89.644 78.592" stroke="none" fill="#fefffe" fill-rule="evenodd"/></svg>